# xmcd
#
# Track frame offsets:
#	150
#	22289
#	34800
#	56368
#	73800
#	90396
#	115502
#	128887
#	147174
#	169774
#	178807
#	205699
#	230394
#
# Disc length: 3290 seconds
#
# Revision: 5
# Processed by: cddbd v1.5.2PL0 Copyright (c) Steve Scherf et al.
# Submitted via: audiograbber 1.83.01
#
DISCID=b10cd80d
DTITLE=Birgit Nolte-Michel - Lady Sings The Blues (Songs von Billie Holiday)
DYEAR=2010
DGENRE=Blues
TTITLE0=I'll Never Be The Same
TTITLE1=Jeepers Creepers
TTITLE2=Easy To Remember
TTITLE3=Riffin' The Scotch
TTITLE4=Trav'lin' All Alone
TTITLE5=On The Sunny Side Of The Street
TTITLE6=Strange Fruit
TTITLE7=Don't Explain
TTITLE8=Yesterdays
TTITLE9=Please Don't Talk About Me When I'm Gone
TTITLE10=Lady Sings The Blues
TTITLE11=Billie's Blues
TTITLE12=Autumn In New York
EXTD=Liveaufnahmen Februar 2010 im Theater an der Linde in Weinstadt-Strümpfelb
EXTD=ach\nGesang: Birgit Nolte-Michel\nKlavier/Akkordeon: Michael Lauenstein\nS
EXTD=axophon: Ekkehard Rössle\nGitarre: Sven Götz
EXTT0=
EXTT1=
EXTT2=
EXTT3=
EXTT4=
EXTT5=
EXTT6=
EXTT7=
EXTT8=
EXTT9=
EXTT10=
EXTT11=
EXTT12=
PLAYORDER=
